<svg width="966" height="721" viewBox="0 0 966 721" fill="none" xmlns="http://www.w3.org/2000/svg">
<path d="M124.206 245.345C127.052 390.516 134.339 825.959 136.301 680.773C137.944 559.193 133.511 437.449 137.645 315.901C141.051 215.766 152.182 101.36 204.841 12.8479C210.632 3.1136 213.83 34.4624 213.24 45.7738C209.967 108.509 199.152 171.424 177.29 230.562C154.193 293.044 120.377 350.477 73.473 397.879C73.1178 398.238 31.9317 441.835 19.3805 430.805C-17.4298 398.457 78.0792 369.744 92.6238 370.329C185.044 374.047 279.943 431.261 372.158 389.816C412.555 371.66 439.83 332.538 445.401 289.358C449.045 261.117 437.753 245.084 408.444 253.409C388.11 259.184 210.484 365.978 234.407 382.424C253.29 395.407 310.6 352.179 320.081 345.467C332.273 336.835 382.451 280.55 400.38 280.287C419.31 280.008 414.819 436.915 442.713 425.43C460.027 418.3 520.202 301.367 529.396 307.837C542.989 317.403 525.371 331.02 552.578 331.02C609.121 331.02 669.212 305.939 723.591 293.726C759.707 285.614 799.545 274.559 836.816 282.975C859.704 288.143 881.43 297.713 904.348 303.133C915.305 305.724 964.883 305.732 952.729 323.964" stroke="#2D2D2D" stroke-width="20.8235" stroke-linecap="round"/>
</svg>
